<svg xmlns="http://www.w3.org/2000/svg" viewBox="0 0 132 25">
  <g fill="#363F54" transform="translate(.74 .5)">
    <path d="M8.9 20.52c.02 0 .02 0 0 0l6.45-4.85V2.31L8.76 7.24 2.3 12.1a5.23 5.23 0 0 0-1 7.45 5.52 5.52 0 0 0 7.61.98zm32.69-2.59h-.06v1.52h-3.19V2.31h3.32V8.7h.06a3.98 3.98 0 0 1 3.49-1.83c3.14 0 5.4 2.65 5.4 6.47 0 3.97-2.16 6.47-5.3 6.47a4.12 4.12 0 0 1-3.72-1.88zm5.65-4.57c0-2.28-.91-3.85-2.77-3.85-2.1 0-2.88 1.65-2.88 3.91 0 2.25 1.13 3.69 3 3.69 1.72 0 2.65-1.39 2.65-3.75zm4.4-11.05h3.31v17.16h-3.3zM64.08 18.1h-.05c-.64.93-1.54 1.66-3.7 1.66-2.56 0-4.36-1.32-4.36-3.75 0-2.69 2.24-3.56 5.02-3.95 2.07-.29 3.02-.46 3.02-1.39 0-.88-.7-1.45-2.1-1.45-1.56 0-2.33.56-2.42 1.72h-2.95c.1-2.16 1.73-4.03 5.4-4.03 3.76 0 5.26 1.65 5.26 4.5v6.24c0 .92.16 1.48.45 1.68v.12h-3.2a3.2 3.2 0 0 1-.37-1.35zm.02-2.95V13.3c-.6.33-1.49.52-2.33.72-1.73.4-2.57.78-2.57 1.91 0 1.15.8 1.55 1.95 1.55 1.91 0 2.95-1.16 2.95-2.34zm3.98-1.79c0-3.65 2.45-6.47 6.24-6.47 3.25 0 5.25 1.84 5.7 4.47h-3.25a2.3 2.3 0 0 0-2.3-1.89c-2 0-3 1.5-3 3.87 0 2.33.94 3.87 2.96 3.87 1.34 0 2.3-.7 2.52-2.08h3.19c-.23 2.6-2.3 4.68-5.64 4.68-3.97.01-6.42-2.8-6.42-6.45zm17.66.52l-1.43 1.45v4.14h-3.3V2.31h3.3v9.53l4.43-4.63h3.99l-4.6 4.64 5.17 7.59h-4.04zm7.99-6.65h3.19v1.52h.07a4.45 4.45 0 0 1 3.69-1.86c3.31 0 5.43 2.65 5.43 6.47 0 3.97-2.2 6.46-5.41 6.46-1.76 0-2.9-.69-3.6-1.73h-.06v5.67h-3.31V7.23zm9.04 6.21c0-2.33-.85-3.95-2.88-3.95-2.07 0-2.9 1.74-2.9 3.95 0 2.23 1.03 3.68 3.02 3.68 1.67 0 2.76-1.35 2.76-3.68zm4.38-6.16h3.31v12.26h-3.31zm4.5-4.9h3.31v17.16h-3.31zm4.54 0h3.3v17.16h-3.3zm3.98 13.19h3.07c.23 1.4 1.24 2.03 2.73 2.03 1.46 0 2.3-.56 2.3-1.4 0-1.17-1.6-1.29-3.3-1.63-2.25-.44-4.44-1.01-4.44-3.7 0-2.65 2.25-3.91 5.1-3.91 3.29 0 5.11 1.6 5.36 4.07h-3c-.16-1.32-1-1.8-2.42-1.8-1.3 0-2.16.5-2.16 1.36 0 1.04 1.66 1.15 3.44 1.5 2.1.44 4.4 1 4.4 3.87 0 2.46-2.16 3.95-5.27 3.95-3.58-.03-5.62-1.76-5.8-4.34z"/>
    <ellipse cx="108.53" cy="3.87" rx="1.81" ry="1.77"/>
    <path d="M23.06 1.27c-.02 0-.02 0 0 0L16.6 6.1v13.4l6.6-4.93 6.46-4.85a5.25 5.25 0 0 0 1-7.46 5.47 5.47 0 0 0-7.59-.98zM8.9 20.53l6.47-4.84V2.3L8.78 7.24 2.29 12.1a5.25 5.25 0 0 0-1 7.45 5.48 5.48 0 0 0 7.61 1z"/>
  </g>
</svg>